#define d190715b88804528d410d517d5f04507RKiQLN6R3ltMlPnT_width 16
#define d190715b88804528d410d517d5f04507RKiQLN6R3ltMlPnT_height 16
static char d190715b88804528d410d517d5f04507RKiQLN6R3ltMlPnT_bits[] = {
  0x00, 0x00, 0x00, 0x00, 0x00, 0x00, 0x00, 0x00, 0x00, 0x00, 0x85, 0x0C, 
  0xF0, 0x0F, 0xF0, 0x0F, 0xF8, 0x0F, 0xF0, 0x0F, 0x90, 0x0E, 0x00, 0x00, 
  0x00, 0x00, 0x08, 0x00, 0x00, 0x00, 0x00, 0x00, };
